<svg xmlns="http://www.w3.org/2000/svg" width="376.72" height="170.08" viewBox="0 0 376.72 170.08"><path fill="#fff" d="M-.002 170.081l170.076-.001V.004H-.002V170.08m366.6.001H200.31v-34.015H366.6v34.015"/><path fill="#5c2874" d="M36.716 73.82V51.64h-2.98v9.654H21.561V51.64h-3.017v22.18h3.017v-9.796h12.175v9.796zm20.514 0v-2.803H46.196v-6.921h9.19v-2.803h-9.19v-6.852H57.23V51.64H43.176v22.18zm8.376-8.555l3.799-.245 5.395 8.8h3.585l-5.999-9.299c3.05-.992 5.003-3.052 5.003-6.388 0-3.94-2.805-6.494-8.163-6.494H62.59V73.82h3.016zm0-2.661v-8.197h3.263c3.373 0 5.503 1.242 5.503 3.866 0 2.735-2.199 4.117-5.111 4.224zm31.48 11.217v-2.804H84.59l12.53-17.036V51.64H81.01v2.802h12.35L80.798 71.55v2.272h16.288M86.112 38.955c-6.701 0-11.204-4.688-11.204-11.666 0-6.932 4.61-11.775 11.204-11.775 2.534 0 5.249.715 7.077 1.863l-.92 2.846-.04.112-.101-.065c-2-1.308-3.8-1.865-6.016-1.865-4.836 0-7.96 3.43-7.96 8.742 0 5.419 3.15 8.916 8.028 8.916 2.161 0 4.488-.799 6.226-2.141l.127-.098.023.156.498 3.015c-1.901 1.264-4.48 1.96-6.942 1.96m-47.231 0c-6.721 0-11.238-4.688-11.238-11.666 0-6.823 4.728-11.775 11.238-11.775 6.722 0 11.24 4.675 11.24 11.633 0 6.841-4.729 11.808-11.24 11.808m-.072-20.55c-4.74 0-7.925 3.51-7.925 8.742 0 5.335 3.24 8.916 8.07 8.916 4.688 0 7.96-3.608 7.96-8.774 0-5.315-3.259-8.884-8.105-8.884m116.286 20.017h-3.24l-.003-.098-.21-17.937-6.56 17.65-3.107.066-6.693-17.76-.238 17.981-.003.098h-3.139l.003-.098.747-22.183.002-.092h4.099l6.818 18.063 6.687-18 4.029-.063h.093l.003.092.71 22.183zm-28.96 0h-3.175V16.049h3.176v22.275zm-9.516 0h-3.17v-9.796h-11.98v9.796H98.26V16.049h3.208v9.653h11.98v-9.653h3.17v22.275zm-43.96 0h-3.226l-2.182-5.884-9.53.062-2.002 5.758-3.217.064h-.136l.05-.128 8.342-22.182 3.53-.063 8.325 22.245zm-13.807-8.745h7.356l-3.661-10.128zm-45.75 15.531l-.013-3.23c4.095-.163 6.171-2.564 6.171-7.15V15.995h3.186v19.663c0 5.972-3.402 9.446-9.344 9.55m135.155 112.156c-6.225 0-10.41-4.357-10.41-10.841 0-6.44 4.28-10.937 10.41-10.937 2.443 0 5.218.721 6.91 1.796l-.886 2.68-.04.112-.103-.066c-1.817-1.164-3.964-1.829-5.881-1.829-4.485 0-7.384 3.185-7.384 8.113 0 5.028 2.923 8.273 7.45 8.273 1.894 0 3.462-.567 4.444-1.045l-.056-4.696h-5.766v-2.793h8.658v9.158c-2.016 1.292-4.88 2.075-7.346 2.075m-43.867 0c-5.093 0-8.134-3.083-8.134-8.236v-13.047h2.96v12.618c0 3.818 1.846 5.837 5.342 5.837 3.273 0 5.076-2.003 5.076-5.638V136.08h2.964v12.746c0 5.504-2.917 8.537-8.208 8.537m-82.98 0c-2.443 0-4.969-.714-6.935-1.963l.88-2.649.042-.113.099.065c2.055 1.356 3.9 1.961 5.983 1.961 2.581 0 4.386-1.382 4.386-3.362 0-2.047-1.57-2.824-4.873-3.698-3.238-.877-6.237-2.226-6.237-6.124 0-3.528 2.81-5.895 6.986-5.895 2.41 0 4.548.598 6.543 1.825l-.952 2.559-.043.107-.096-.065c-1.588-1.065-3.617-1.697-5.419-1.697-2.599 0-4.087 1.079-4.087 2.966 0 1.933 1.521 2.67 4.936 3.602 2.855.756 6.135 2.141 6.135 6.219 0 3.687-3.023 6.262-7.349 6.262m112.51-.3h-3.13l-10.94-16.584v16.39h-2.927v-20.79h3.189l10.882 16.39v-16.39h2.926v20.89zm-47.885-.195h-2.958v-17.96h-7.221v-2.828h17.397v2.829h-7.218v17.862zm-23.099 0h-2.997V136.08H72.85v2.83h-9.916v6.498h8.202v2.792h-8.202v8.572zm-8.11 0h-2.96V136.08h2.96v20.692zm-6.328-18.055v.095H41.28v17.96h-2.96v-17.96h-7.217v-2.829h17.393v2.734"/><path fill="#fff" d="M371.211 92.234c-1.616-1.608-16.065-14.963-19.103-17.77a6.716 6.716 0 00-1.223-.895l-11.698-6.684a1.327 1.327 0 01-.661-1c-.896-7.664-2.898-13.588-7.323-20.385a34.387 34.387 0 01-3.795-7.882c-.156-.466-1.482-4.274-1.666-4.82-1.236-3.701-2.985-8.925-3.85-11.504a1.488 1.488 0 01.969-1.89c1.78-.567 4.743-2.107 6.5-6.228 0 0 .763-3.123 5.85-4.344 2.248-.596 2.94-3.543 2.904-5.973-.045-3.068-2.972-3.154-5.22-2.56-.34.09-.657.22-.952.389-.74.423-1.516.783-2.341 1.007l-11.139 3.032c-2.26.547-3.497.62-4.528.433-.966-.148-2.002-.064-2.978.197-.976.264-1.91.713-2.665 1.327-.916.786-2.244 1.412-5.25 2.224l-8.44 2.312s2.563 1.854 6.67 1.854c0 0-2.335 4.09-9.24 5.392 0 0 3.6 1.819 6.736 1.527 0 0-2.287 5.933-8.325 7.136 1.073.768 6.292 1.762 9.111-.028 0 0-2.127 4.113-8.745 5.36 0 0 3.23 2.643 7.504 1.935 0 0-2.598 2.128-6.038 1.487 0 0-5.308-.467-6.715-5.01-.404-1.284-1.28-4.518-5.957-6.014-2.21-.704-1.625-1.577-1.625-1.577.281-.419.796-.781 1.713-.873.904-.094 1.647-.67 1.253-1.436a4.147 4.147 0 01-.25-.55c-.04-.185.105-.222.209-.386.168-.254-.008-.4-.03-.458.073-.073.197-.46.06-.524-.218-.129-.233-.349-.197-.553.082-.361.54-.35.502-.808-.027-.128-.078-.25-.395-.484-.21-.152-.564-.446-1.024-.988-.192-.304-.096-.621-.116-.748 0-.364-.048-.424-.119-.63l-.737-1.426c-.375-.716-1.323-2.177-3.276-2.324-2.432-.186-4.214.642-5.304 1.762-1.096 1.116-2.281 2.173-3.905 2.036-1.021-.088-.773.526-.643.734.316.504 1.123.987 1.984 1.227 1.228.34.816.697.356.852-1.56.517-2.248 1.47.578 2.496 1.173.425 1.17 1.202.494 1.1-1.508-.23-.454.881 1.172 1.413 1.22.399 1.656.992 1.51 1.745-.476 2.438-2.368 5.919-3.403 11.297-.964 5.62 2.352 6.98 6.653 7.658 1.513.24 1.58 1.757 1.58 3.074 0 1.881-2.876 2.197-7.681 2.376-14.568.537-22.012 2.09-27.218 9.922a1.165 1.165 0 01-1.361.454c-1.211-.43-3.44-1.232-5.182-1.895-1.77-.67-3.665-1.301-5.549-1.9-5.15-1.634-12.555-.27-16.84 5.879-2.629 3.773-4.502 11.05-15.359 14.062 0 0 3.107 3.044 7.615 1.45 0 0-5.308 10.862-17.007 12.3 0 0 2.03 4.279 9.505 4.003 0 0-5.27 3.46-12.98 3.46 0 0 5.257 7.816 15.174 4.59 0 0 0 2.203-3.032 3.842 0 0 7.773.288 15.098-6.479-.353 1.465-1.001 3.423-2.176 5.95 14.226-9.57 14.226-34.218 14.226-34.218h-.001a71.9 71.9 0 00.112-1.006c.817-7.752 5.885-9.048 14.134-6.533.584.177.926.77.786 1.356-.674 2.847-1.834 11.184 5.046 18.805 1.132 1.119.692 1.856-.088 2.844l-4.384 5.28a8.64 8.64 0 01-2.62 2.129c-1.462.763-2.293 1.45-2.416 3.49a11.89 11.89 0 01-.213 1.576l-.47 2.422-1.242 5.894c-1.748 6.827-6.289 9.338-4.67 13.599.85 2.239-2.543 2.973-2.771 3.754-.59 2.027 3.34 5.923 4.743 5.523.486-.136 1.726-2.212 1.525-7.07-.033-.89 8.758-21.763 8.758-21.763a4.228 4.228 0 011.57-1.872l9.225-6.035-.746 2.172c-.396 1.153-1.078 2.178-1.926 3.06a4.422 4.422 0 00-.976 1.602c-.462 1.339-.159 2.823.701 3.956l8.87 11.66c4.498 6.82 1.991 6.869 5.72 9.534 3.04 2.17 1.602 6.024 2.28 6.697 1.372 1.357 7.106 1.054 7.417.238 0-2.188-2.914-5.65-4.355-6.786l-11.192-19.398a4.135 4.135 0 01-.553-2.268c.054-1.197.68-2.299 1.625-3.047l7.154-5.675c4.066-3.226 7.37-7.356 9.243-12.159 1.162-2.982 5.2-3.941 7.734-3.941h10.515c-1.29 2.447-3.176 4.813-3.176 5.821 0 .985 7.522 3.184 10.089 3.184.616 0 1.01-.167 1.257-.327.45-.288.37-.964-.116-1.188-.816-.374-2.572-1.298-3.508-2.658-.433-.633-.521-1.316-.434-1.963.217-1.632 1.546-2.902 3.189-3.184l17.59-4.305a2.7 2.7 0 012.967 1.245l7.889 13.477a3.27 3.27 0 01-.32 3.763l-4.921 5.875c-.922.913-1.547 1.366-2.278 1.531-1.76.532-3.236 2.466-2.716 4.43-.804.476-1.58.162-1.877.074-.713-.202-2.004-.694-2.48-.448-.879.447-3.312 7.266-1.765 7.485 3.564.506 7.76-3.113 7.76-3.113l15.326-15.529a3.28 3.28 0 00.828-3.198l-3.383-11.975c-.278-.985.63-1.894 1.632-1.635l12.795 3.307c.86.223 1.668.612 2.373 1.146 0 0 12.296 9.178 13.082 9.836 1.598 1.35 2.18 2.44 2.395 3.36.521 1.918 2.47 3.07 4.413 2.647l.004.003c.125.11.195.27.176.433-.125 1.135-1.073 2.539-.25 2.924 3.29 1.544 7.751 1.023 7.751.194 0-2.266-3.405-5.227-5.492-7.3"/></svg>
